<svg version="1.1" id="Layer_1" xmlns="http://www.w3.org/2000/svg" xmlns:xlink="http://www.w3.org/1999/xlink" x="0px" y="0px"
	 width="100%" viewBox="0 0 2077 2048" enable-background="new 0 0 2077 2048" xml:space="preserve">
<path fill="#96D550" opacity="1.000000" stroke="none" 
	d="
M2.000000,1466.000000 
	C2.000000,978.113770 2.000000,490.227509 2.000000,2.000000 
	C692.058716,2.000000 1382.117554,2.000000 2072.952637,2.928795 
	C2073.707764,8.189976 2073.668213,12.522361 2073.668213,16.854746 
	C2073.665283,303.818726 2073.665283,590.782715 2073.665283,877.746704 
	C2073.665283,1069.389282 2073.665283,1261.031982 2073.665283,1452.674561 
	C2073.665283,1456.910522 2073.665527,1461.146362 2073.665527,1466.328857 
	C2068.233643,1466.328857 2063.977783,1466.328857 2059.722168,1466.328857 
	C1377.807739,1466.328857 695.893250,1466.329346 13.978760,1466.315186 
	C9.985838,1466.315186 5.992920,1466.109619 2.000000,1466.000000 
z"/>
<path fill="#000000" opacity="1.000000" stroke="none" 
	d="
M2.000000,1466.937256 
	C5.992920,1466.109619 9.985838,1466.315186 13.978760,1466.315186 
	C695.893250,1466.329346 1377.807739,1466.328857 2059.722168,1466.328857 
	C2063.977783,1466.328857 2068.233643,1466.328857 2073.665527,1466.328857 
	C2073.665527,1461.146362 2073.665283,1456.910522 2073.665283,1452.674561 
	C2073.665283,1261.031982 2073.665283,1069.389282 2073.665283,877.746704 
	C2073.665283,590.782715 2073.665283,303.818726 2073.668213,16.854746 
	C2073.668213,12.522361 2073.707764,8.189976 2073.864258,2.928795 
	C2075.998779,2.000000 2077.997803,2.000000 2079.998291,2.000000 
	C2080.000000,526.041809 2080.000000,1050.083618 2079.069824,1574.937012 
	C1995.271606,1575.748535 1912.403320,1575.748535 1829.759399,1575.748535 
	C1827.439941,1587.569336 1827.881592,1649.985352 1830.429932,1657.987793 
	C1868.891968,1657.987793 1907.688477,1657.987793 1947.919678,1657.987793 
	C1911.660156,1753.028687 1875.923218,1846.699707 1840.186401,1940.370605 
	C1839.582397,1940.336060 1838.978394,1940.301514 1838.374512,1940.266968 
	C1793.987549,1818.957642 1749.600586,1697.648315 1705.204834,1576.315186 
	C1669.769653,1576.315186 1634.979858,1576.315186 1599.105469,1576.315186 
	C1601.288940,1582.788818 1602.939209,1588.460449 1605.088745,1593.936035 
	C1633.042236,1665.143555 1661.109619,1736.306519 1689.061646,1807.514648 
	C1719.813232,1885.855103 1750.490234,1964.224854 1781.100830,2042.620483 
	C1781.973877,2044.856445 1781.725464,2047.530273 1782.000000,2050.000000 
	C1716.624878,2050.000000 1651.249756,2050.000000 1585.062500,2049.069824 
	C1584.250366,2023.607910 1584.250366,1999.076294 1584.250366,1973.455811 
	C1508.423706,1973.455811 1433.940186,1973.455811 1358.910400,1973.455811 
	C1358.910400,1929.869263 1358.910400,1887.395386 1358.910400,1843.665283 
	C1392.700684,1843.665283 1425.926758,1843.670288 1459.152710,1843.663818 
	C1492.345093,1843.657349 1525.538208,1843.695435 1558.988525,1843.634277 
	C1558.988525,1815.651733 1558.988525,1789.172974 1558.988525,1761.674927 
	C1547.408325,1761.674927 1536.475952,1761.674927 1525.543701,1761.674927 
	C1514.210449,1761.674927 1502.877319,1761.674927 1491.544067,1761.674927 
	C1480.544189,1761.674927 1469.544312,1761.674927 1458.544434,1761.674927 
	C1447.544556,1761.674927 1436.544800,1761.674927 1425.544922,1761.674927 
	C1414.211670,1761.674927 1402.877930,1761.750732 1391.545532,1761.653198 
	C1380.700439,1761.559814 1369.813721,1762.100220 1359.086426,1761.265137 
	C1359.086426,1726.119141 1359.086426,1692.296631 1359.086426,1657.475830 
	C1430.693726,1657.475830 1501.553589,1657.475830 1573.654785,1657.475830 
	C1573.571167,1629.758789 1573.964478,1603.055908 1573.387085,1576.527954 
	C1555.604492,1574.567383 1263.682739,1575.330566 1255.674072,1577.400635 
	C1255.674072,1581.464600 1255.673950,1585.743774 1255.673950,1590.022827 
	C1255.673950,1739.354370 1255.671631,1888.685913 1255.687744,2038.017456 
	C1255.688232,2042.011597 1255.891357,2046.005859 1256.000000,2050.000000 
	C1193.958252,2050.000000 1131.916382,2050.000000 1068.835938,2049.439941 
	C1067.637695,2048.535400 1067.478149,2048.191162 1067.375488,2046.921143 
	C1067.447388,1919.996216 1067.461914,1793.996826 1067.481934,1667.997559 
	C1067.482300,1665.998291 1067.526245,1663.998291 1067.600342,1662.000366 
	C1067.624878,1661.341797 1067.781738,1660.682617 1067.932007,1660.036377 
	C1068.002441,1659.733643 1068.163086,1659.432129 1068.351318,1659.181519 
	C1068.548462,1658.918945 1068.827759,1658.718262 1070.306641,1657.333496 
	C1117.876221,1657.333496 1166.693604,1657.333496 1215.675781,1657.333496 
	C1215.675781,1629.676514 1215.675781,1603.180176 1215.675781,1576.254639 
	C1079.203003,1576.254639 943.385803,1576.254639 807.685791,1576.254639 
	C805.466797,1587.287842 805.874756,1649.904419 808.304382,1657.653198 
	C858.569092,1657.694946 909.058472,1657.630615 960.329529,1657.691528 
	C960.329529,1663.127930 960.329529,1667.073730 960.329529,1671.019531 
	C960.329529,1793.685547 960.332397,1916.351685 960.315674,2039.017700 
	C960.315125,2042.678467 960.109863,2046.339233 960.000000,2050.000000 
	C936.624878,2050.000000 913.249756,2050.000000 888.713379,2049.305420 
	C878.867798,2026.317627 870.206482,2004.015503 861.495056,1981.732910 
	C830.746643,1903.083252 800.029846,1824.421021 769.203552,1745.801880 
	C750.655090,1698.495728 731.921814,1651.262085 713.281982,1603.991821 
	C709.637573,1594.749878 706.040466,1585.489136 702.460449,1576.336670 
	C660.157166,1576.336670 618.674011,1576.336670 577.154785,1576.336670 
	C563.032654,1613.214111 549.162720,1649.535645 535.216492,1685.827881 
	C510.884399,1749.147339 486.523682,1812.455933 462.139771,1875.755493 
	C445.161926,1919.829224 428.048706,1963.850952 411.159729,2007.958618 
	C405.833740,2021.868042 401.038239,2035.980469 396.000000,2050.000000 
	C338.624878,2050.000000 281.249756,2050.000000 222.342972,2049.354492 
	C222.841476,2047.771851 224.790619,2046.545410 226.916519,2045.949463 
	C234.269806,2043.888062 241.804382,2042.415039 249.056305,2040.060059 
	C291.457855,2026.290161 327.747192,2002.983154 357.083618,1969.333862 
	C390.949951,1930.488770 410.050049,1885.316772 413.695557,1833.793823 
	C415.902039,1802.609375 411.866699,1772.008545 403.812500,1741.975586 
	C391.638977,1696.582397 369.374176,1657.106934 333.470093,1626.057007 
	C298.243317,1595.592896 256.906982,1579.733521 210.797791,1576.518433 
	C191.560532,1575.177246 172.179977,1575.705688 152.864594,1575.706543 
	C102.576393,1575.708984 52.288197,1575.890137 2.000000,1576.000000 
	C2.000000,1539.958252 2.000000,1503.916382 2.000000,1466.937256 
z"/>
<path fill="#00A992" opacity="1.000000" stroke="none" 
	d="
M2.000000,1576.937256 
	C52.288197,1575.890137 102.576393,1575.708984 152.864594,1575.706543 
	C172.179977,1575.705688 191.560532,1575.177246 210.797791,1576.518433 
	C256.906982,1579.733521 298.243317,1595.592896 333.470093,1626.057007 
	C369.374176,1657.106934 391.638977,1696.582397 403.812500,1741.975586 
	C411.866699,1772.008545 415.902039,1802.609375 413.695557,1833.793823 
	C410.050049,1885.316772 390.949951,1930.488770 357.083618,1969.333862 
	C327.747192,2002.983154 291.457855,2026.290161 249.056305,2040.060059 
	C241.804382,2042.415039 234.269806,2043.888062 226.916519,2045.949463 
	C224.790619,2046.545410 222.841476,2047.771851 221.405655,2049.354492 
	C148.759216,2050.000000 75.518440,2050.000000 2.000000,2050.000000 
	C2.000000,1892.625000 2.000000,1735.249756 2.000000,1576.937256 
M204.042770,1658.353271 
	C201.389725,1658.128784 198.736923,1657.712769 196.083588,1657.709229 
	C167.099060,1657.671387 138.114426,1657.684937 109.129944,1657.742432 
	C107.572739,1657.745483 106.016556,1658.264282 104.252602,1658.580200 
	C104.252602,1762.219238 104.252602,1865.332031 104.252602,1968.125000 
	C105.404396,1968.755615 105.971069,1969.336792 106.538765,1969.337769 
	C133.138260,1969.383667 159.858856,1971.709839 186.277985,1967.496582 
	C217.545532,1962.510010 245.188400,1949.833740 268.266449,1927.403564 
	C289.800018,1906.474609 302.720764,1881.105835 309.202454,1852.287476 
	C317.770264,1814.193970 317.185944,1776.280762 303.817474,1739.249634 
	C293.544098,1710.791870 276.105988,1688.145752 249.035812,1673.188110 
	C235.367111,1665.635620 220.875748,1661.538086 204.042770,1658.353271 
z"/>
<path fill="#00A891" opacity="1.000000" stroke="none" 
	d="
M396.937317,2050.000000 
	C401.038239,2035.980469 405.833740,2021.868042 411.159729,2007.958618 
	C428.048706,1963.850952 445.161926,1919.829224 462.139771,1875.755493 
	C486.523682,1812.455933 510.884399,1749.147339 535.216492,1685.827881 
	C549.162720,1649.535645 563.032654,1613.214111 577.154785,1576.336670 
	C618.674011,1576.336670 660.157166,1576.336670 702.460449,1576.336670 
	C706.040466,1585.489136 709.637573,1594.749878 713.281982,1603.991821 
	C731.921814,1651.262085 750.655090,1698.495728 769.203552,1745.801880 
	C800.029846,1824.421021 830.746643,1903.083252 861.495056,1981.732910 
	C870.206482,2004.015503 878.867798,2026.317627 887.776001,2049.305420 
	C800.624878,2050.000000 713.249756,2050.000000 625.063354,2049.069824 
	C624.327942,2023.616943 624.403748,1999.093994 624.481934,1973.798584 
	C668.452698,1973.455933 711.171021,1973.898315 755.873169,1973.527588 
	C716.859253,1874.008301 678.612427,1776.445923 639.669922,1677.108887 
	C637.444824,1682.507690 635.996948,1685.773560 634.738770,1689.110840 
	C616.476074,1737.552612 598.295715,1786.025635 579.981934,1834.448120 
	C553.879395,1903.463989 527.666504,1972.437988 501.590424,2041.463867 
	C500.583557,2044.129272 500.509003,2047.146606 500.000000,2050.000000 
	C465.958221,2050.000000 431.916412,2050.000000 396.937317,2050.000000 
z"/>
<path fill="#00A891" opacity="1.000000" stroke="none" 
	d="
M1782.937256,2050.000000 
	C1781.725464,2047.530273 1781.973877,2044.856445 1781.100830,2042.620483 
	C1750.490234,1964.224854 1719.813232,1885.855103 1689.061646,1807.514648 
	C1661.109619,1736.306519 1633.042236,1665.143555 1605.088745,1593.936035 
	C1602.939209,1588.460449 1601.288940,1582.788818 1599.105469,1576.315186 
	C1634.979858,1576.315186 1669.769653,1576.315186 1705.204834,1576.315186 
	C1749.600586,1697.648315 1793.987549,1818.957642 1838.374512,1940.266968 
	C1838.978394,1940.301514 1839.582397,1940.336060 1840.186401,1940.370605 
	C1875.923218,1846.699707 1911.660156,1753.028687 1947.919678,1657.987793 
	C1907.688477,1657.987793 1868.891968,1657.987793 1830.429932,1657.987793 
	C1827.881592,1649.985352 1827.439941,1587.569336 1829.759399,1575.748535 
	C1912.403320,1575.748535 1995.271606,1575.748535 2079.069824,1575.874268 
	C2080.000000,1578.777832 2080.000000,1581.555542 2079.384033,1584.603149 
	C2076.983643,1588.385986 2074.875244,1591.774536 2073.468018,1595.432739 
	C2065.233398,1616.837769 2057.259766,1638.343262 2049.018066,1659.745361 
	C2027.745972,1714.986816 2006.325684,1770.171387 1985.064453,1825.416992 
	C1958.549683,1894.313232 1932.109985,1963.238525 1905.720581,2032.182861 
	C1903.494263,2037.999634 1901.892212,2044.055298 1900.000000,2050.000000 
	C1861.291504,2050.000000 1822.583130,2050.000000 1782.937256,2050.000000 
z"/>
<path fill="#00A992" opacity="1.000000" stroke="none" 
	d="
M1256.937256,2050.000000 
	C1255.891357,2046.005859 1255.688232,2042.011597 1255.687744,2038.017456 
	C1255.671631,1888.685913 1255.673950,1739.354370 1255.673950,1590.022827 
	C1255.673950,1585.743774 1255.674072,1581.464600 1255.674072,1577.400635 
	C1263.682739,1575.330566 1555.604492,1574.567383 1573.387085,1576.527954 
	C1573.964478,1603.055908 1573.571167,1629.758789 1573.654785,1657.475830 
	C1501.553589,1657.475830 1430.693726,1657.475830 1359.086426,1657.475830 
	C1359.086426,1692.296631 1359.086426,1726.119141 1359.086426,1761.265137 
	C1369.813721,1762.100220 1380.700439,1761.559814 1391.545532,1761.653198 
	C1402.877930,1761.750732 1414.211670,1761.674927 1425.544922,1761.674927 
	C1436.544800,1761.674927 1447.544556,1761.674927 1458.544434,1761.674927 
	C1469.544312,1761.674927 1480.544189,1761.674927 1491.544067,1761.674927 
	C1502.877319,1761.674927 1514.210449,1761.674927 1525.543701,1761.674927 
	C1536.475952,1761.674927 1547.408325,1761.674927 1558.988525,1761.674927 
	C1558.988525,1789.172974 1558.988525,1815.651733 1558.988525,1843.634277 
	C1525.538208,1843.695435 1492.345093,1843.657349 1459.152710,1843.663818 
	C1425.926758,1843.670288 1392.700684,1843.665283 1358.910400,1843.665283 
	C1358.910400,1887.395386 1358.910400,1929.869263 1358.910400,1973.455811 
	C1433.940186,1973.455811 1508.423706,1973.455811 1584.250366,1973.455811 
	C1584.250366,1999.076294 1584.250366,2023.607910 1584.125244,2049.069824 
	C1475.291504,2050.000000 1366.583130,2050.000000 1256.937256,2050.000000 
z"/>
<path fill="#00A992" opacity="1.000000" stroke="none" 
	d="
M960.937317,2050.000000 
	C960.109863,2046.339233 960.315125,2042.678467 960.315674,2039.017700 
	C960.332397,1916.351685 960.329529,1793.685547 960.329529,1671.019531 
	C960.329529,1667.073730 960.329529,1663.127930 960.329529,1657.691528 
	C909.058472,1657.630615 858.569092,1657.694946 808.304382,1657.653198 
	C805.874756,1649.904419 805.466797,1587.287842 807.685791,1576.254639 
	C943.385803,1576.254639 1079.203003,1576.254639 1215.675781,1576.254639 
	C1215.675781,1603.180176 1215.675781,1629.676514 1215.675781,1657.333496 
	C1166.693604,1657.333496 1117.876221,1657.333496 1070.306641,1657.333496 
	C1068.827759,1658.718262 1068.548462,1658.918945 1068.351318,1659.181519 
	C1068.163086,1659.432129 1068.002441,1659.733643 1067.932007,1660.036377 
	C1067.781738,1660.682617 1067.624878,1661.341797 1067.600342,1662.000366 
	C1067.526245,1663.998291 1067.482300,1665.998291 1067.481934,1667.997559 
	C1067.461914,1793.996826 1067.447388,1919.996216 1067.054932,2047.208740 
	C1066.356567,2048.907227 1066.130737,2049.433350 1066.000000,2050.000000 
	C1031.291504,2050.000000 996.583069,2050.000000 960.937317,2050.000000 
z"/>
<path fill="#000100" opacity="1.000000" stroke="none" 
	d="
M1900.937256,2050.000000 
	C1901.892212,2044.055298 1903.494263,2037.999634 1905.720581,2032.182861 
	C1932.109985,1963.238525 1958.549683,1894.313232 1985.064453,1825.416992 
	C2006.325684,1770.171387 2027.745972,1714.986816 2049.018066,1659.745361 
	C2057.259766,1638.343262 2065.233398,1616.837769 2073.468018,1595.432739 
	C2074.875244,1591.774536 2076.983643,1588.385986 2079.384033,1585.436523 
	C2080.000000,1740.456299 2080.000000,1894.912598 2080.000000,2050.000000 
	C2020.626343,2050.000000 1961.250488,2050.000000 1900.937256,2050.000000 
z"/>
<path fill="#000101" opacity="1.000000" stroke="none" 
	d="
M500.937317,2050.000000 
	C500.509003,2047.146606 500.583557,2044.129272 501.590424,2041.463867 
	C527.666504,1972.437988 553.879395,1903.463989 579.981934,1834.448120 
	C598.295715,1786.025635 616.476074,1737.552612 634.738770,1689.110840 
	C635.996948,1685.773560 637.444824,1682.507690 639.669922,1677.108887 
	C678.612427,1776.445923 716.859253,1874.008301 755.873169,1973.527588 
	C711.171021,1973.898315 668.452698,1973.455933 624.481934,1973.798584 
	C624.403748,1999.093994 624.327942,2023.616943 624.126099,2049.069824 
	C583.291565,2050.000000 542.583069,2050.000000 500.937317,2050.000000 
z"/>
<path fill="#006A65" opacity="1.000000" stroke="none" 
	d="
M1066.500000,2050.000000 
	C1066.130737,2049.433350 1066.356567,2048.907227 1066.998047,2048.134277 
	C1067.478149,2048.191162 1067.637695,2048.535400 1067.898560,2049.439941 
	C1068.000000,2050.000000 1067.000000,2050.000000 1066.500000,2050.000000 
z"/>
<path fill="#000000" opacity="1.000000" stroke="none" 
	d="
M204.941772,1658.447998 
	C220.875748,1661.538086 235.367111,1665.635620 249.035812,1673.188110 
	C276.105988,1688.145752 293.544098,1710.791870 303.817474,1739.249634 
	C317.185944,1776.280762 317.770264,1814.193970 309.202454,1852.287476 
	C302.720764,1881.105835 289.800018,1906.474609 268.266449,1927.403564 
	C245.188400,1949.833740 217.545532,1962.510010 186.277985,1967.496582 
	C159.858856,1971.709839 133.138260,1969.383667 106.538765,1969.337769 
	C105.971069,1969.336792 105.404396,1968.755615 104.252602,1968.125000 
	C104.252602,1865.332031 104.252602,1762.219238 104.252602,1658.580200 
	C106.016556,1658.264282 107.572739,1657.745483 109.129944,1657.742432 
	C138.114426,1657.684937 167.099060,1657.671387 196.083588,1657.709229 
	C198.736923,1657.712769 201.389725,1658.128784 204.941772,1658.447998 
z"/>
</svg>